<?xml version="1.0" encoding="UTF-8" standalone="no"?>
<!-- Created with Inkscape (http://www.inkscape.org/) -->

<svg
   version="1.1"
   id="svg824"
   width="2560"
   height="1440"
   viewBox="0 0 2560 1440"
   sodipodi:docname="background.svg"
   inkscape:export-filename="C:\Users\karam\Desktop\bitmap.png"
   inkscape:export-xdpi="100"
   inkscape:export-ydpi="100"
   inkscape:version="1.1 (c68e22c387, 2021-05-23)"
   xmlns:inkscape="http://www.inkscape.org/namespaces/inkscape"
   xmlns:sodipodi="http://sodipodi.sourceforge.net/DTD/sodipodi-0.dtd"
   xmlns="http://www.w3.org/2000/svg"
   xmlns:svg="http://www.w3.org/2000/svg">
  <defs
     id="defs828" />
  <sodipodi:namedview
     id="namedview826"
     pagecolor="#ffffff"
     bordercolor="#666666"
     borderopacity="1.0"
     inkscape:pageshadow="2"
     inkscape:pageopacity="0.0"
     inkscape:pagecheckerboard="0"
     showgrid="false"
     inkscape:zoom="0.66843688"
     inkscape:cx="1895.4669"
     inkscape:cy="546.79808"
     inkscape:window-width="1920"
     inkscape:window-height="1001"
     inkscape:window-x="-9"
     inkscape:window-y="-9"
     inkscape:window-maximized="1"
     inkscape:current-layer="g1283" />
  <g
     inkscape:groupmode="layer"
     inkscape:label="Image"
     id="g830"
     style="display:inline" />
  <g
     inkscape:groupmode="layer"
     id="layer1"
     inkscape:label="Image 1">
    <g
       id="g1283"
       transform="translate(-193.8612,527.87332)">
      <path
         style="display:inline;fill:#e1c3b3;stroke-width:13.2154;fill-opacity:1"
         id="path1105-9-8"
         d="m 1808.9038,311.1002 c 20.3376,-16.67298 41.9998,-31.74674 61.2887,-49.80034 4.3788,-4.09833 8.4316,-8.56134 12.6474,-12.84201 13.8799,-15.61365 26.6561,-32.57205 35.6551,-51.79298 4.3638,-9.32071 4.628,-11.19825 7.6083,-20.68758 2.8627,-10.70378 5.153,-23.45688 -2.964,-32.3828 -1.0065,-1.10676 -2.2529,-1.94515 -3.3792,-2.91772 -5.2054,-2.88637 -11.6151,-4.91303 -17.2504,-1.75093 -31.967,17.93755 -24.4819,11.65514 -38.2778,24.28871 -1.4547,1.73698 -3.1044,3.31493 -4.3639,5.21094 -9.7205,14.63413 -14.2935,40.31571 -17.9291,57.6067 -2.3867,16.08229 -5.6436,32.37091 -5.2714,48.74612 0.1946,8.56698 1.4739,16.01645 2.6429,24.47223 4.919,19.74025 14.8939,38.66358 29.7381,52.268 2.5772,2.3621 5.5249,4.2432 8.2873,6.3647 2.6232,1.5657 5.048,3.5686 7.8694,4.6972 12.2778,4.9108 24.8554,1.5167 36.7821,-2.6512 14.5177,-5.0736 21.2607,-8.983 35.2,-15.90511 27.6985,-16.17898 56.2307,-31.85106 79.056,-55.27177 19.4733,-19.98141 34.7659,-43.33312 50.1016,-66.73315 23.3146,-37.60799 44.131,-77.05617 60.2966,-118.60768 2.3914,-6.14671 4.482,-12.41642 6.723,-18.62462 5.7471,-19.18116 10.8364,-38.95779 11.6382,-59.16101 0.3717,-9.36654 -0.2465,-12.26981 -1.2049,-21.27006 -2.6379,-12.51568 -8.5351,-24.73276 -19.5682,-31.28383 -1.6421,-0.97507 -3.4359,-1.64069 -5.1539,-2.46104 -4.6775,-1.36181 -9.97,-2.12841 -14.502,0.44215 -25.5034,14.46581 -29.7794,13.97596 -43.164,31.37677 -13.0604,22.85484 -22.6517,47.91419 -29.6855,73.46652 -1.7235,6.26128 -3.1235,12.6148 -4.6854,18.92222 -6.2395,26.30502 -8.0405,53.49017 -6.4403,80.49907 0.9919,16.74216 2.1624,22.166 4.6015,38.5065 5.3653,23.09585 11.9508,46.45799 23.4967,67.14392 6.8475,12.26826 10.3162,15.65762 19.0198,26.5177 17.5908,18.67809 39.3033,32.28984 63.153,40.16002 2.6993,0.3062 5.3828,0.9327 8.0979,0.9185 15.4443,-0.081 31.617,-9.1818 45.188,-16.01611 2.8917,-1.62582 5.8263,-3.17113 8.6752,-4.87745 11.926,-7.14316 23.8214,-14.34349 35.6458,-21.66868 8.8219,-5.46519 16.9698,-12.18073 25.3971,-18.27232 6.0429,-5.13632 12.9364,-9.04639 18.8971,-14.27622 0,0 -31.4039,13.13536 -31.4039,13.13536 v 0 c -6.0786,4.6883 -12.3692,9.06976 -18.3883,13.84395 -6.0202,4.42228 -11.9558,8.99862 -18.0955,13.23982 -2.3183,1.60137 -9.4901,6.03569 -7.0346,4.67562 3.9905,-2.21031 35.3577,-20.9495 11.7622,-7.02752 -12.4848,6.47763 -29.7679,16.08045 -43.7981,17.18569 -2.5765,0.20296 -5.1644,-0.19351 -7.7466,-0.29026 -23.9253,-6.66431 -45.8705,-19.107 -63.3071,-37.69682 -8.7394,-10.87605 -11.7045,-13.65319 -18.6343,-25.89403 -11.5055,-20.32295 -18.441,-43.13336 -23.3963,-66.02637 -2.524,-16.16989 -3.724,-21.38172 -4.6993,-37.97829 -1.5784,-26.86328 0.7904,-53.63672 6.9996,-79.76485 1.586,-6.25001 2.9859,-12.55478 4.7579,-18.75003 7.3352,-25.64355 17.4202,-50.97871 31.9831,-73.07922 1.8725,-2.10595 3.6194,-4.34191 5.6177,-6.31784 1.5146,-1.49764 6.7609,-5.04192 4.8922,-4.07446 -64.5216,33.40228 -21.3661,11.29187 -15.676,10.9378 1.5481,-0.0964 3.0883,0.29927 4.6324,0.4489 1.6259,0.64226 3.3127,1.13633 4.8775,1.9268 10.6781,5.39418 16.2591,16.66251 18.6806,28.29094 1.028,8.63295 1.6656,11.3949 1.3686,20.40287 -0.6498,19.7052 -5.4414,39.05465 -10.8873,57.80892 -2.0996,6.08247 -4.0439,12.22582 -6.2987,18.2474 -15.4985,41.39065 -36.2287,80.41301 -59.5004,117.54654 -15.9444,23.98353 -30.6962,46.06523 -51.1489,66.31757 -5.706,5.65008 -13.221,9.37934 -18.0513,15.85896 -1.7969,2.41043 10.6252,-4.74956 8.3442,-2.83728 -5.1917,4.35232 -11.5529,6.91316 -17.3293,10.36974 -14.546,7.38056 -19.2526,10.32747 -34.2693,15.84393 -10.7098,3.9343 -22.953,7.92654 -34.3327,4.04281 -2.7939,-0.95354 -5.22,-2.82367 -7.83,-4.2355 -2.6941,-1.93762 -5.5654,-3.63103 -8.0826,-5.81288 -14.7512,-12.78617 -24.3014,-31.10567 -28.8937,-50.27121 -1.2446,-9.59654 -2.1517,-14.32211 -2.2469,-24.00703 -0.1585,-16.13083 2.6579,-32.20352 5.1933,-48.0369 3.8946,-18.30886 8.0946,-41.56107 19.7304,-56.44936 1.3714,-1.7546 3.0751,-3.19458 4.6125,-4.79187 12.0855,-9.31486 7.8064,-5.69835 -19.0856,10.40663 -1.2901,0.77253 2.5463,-1.64389 3.9406,-2.18362 3.8317,-1.48323 7.5919,-0.54477 11.209,1.0359 1.0046,0.71621 2.1103,1.2981 3.0137,2.14863 7.8009,7.34416 4.4898,19.78553 2.2845,28.85088 -2.7937,8.83048 -3.2554,11.24133 -7.3222,19.89119 -8.8483,18.81991 -21.4469,35.36755 -35.2317,50.48443 -4.2541,4.20863 -8.3724,8.57196 -12.762,12.6259 -19.984,18.45625 -42.2019,34.06651 -63.6102,50.60247 0,0 31.296,-12.99767 31.296,-12.99767 z" />
      <path
         style="display:inline;fill:#e1c3b3;fill-opacity:1;stroke-width:13.2154"
         id="path1105-9-8-0"
         d="m 1804.9039,317.1002 c 20.3376,-16.67298 41.9998,-31.74674 61.2887,-49.80034 4.3788,-4.09833 8.4316,-8.56134 12.6474,-12.84201 13.8799,-15.61365 26.6561,-32.57205 35.6551,-51.79298 4.3638,-9.32071 4.628,-11.19825 7.6083,-20.68758 2.8627,-10.70378 5.153,-23.45688 -2.964,-32.3828 -1.0065,-1.10676 -2.2529,-1.94515 -3.3792,-2.91772 -5.2054,-2.88637 -11.6151,-4.91303 -17.2504,-1.75093 -31.967,17.93755 -24.4819,11.65514 -38.2778,24.28871 -1.4547,1.73698 -3.1044,3.31493 -4.3639,5.21094 -9.7205,14.63413 -14.2935,40.31571 -17.9291,57.6067 -2.3867,16.08229 -5.6436,32.37091 -5.2714,48.74612 0.1946,8.56698 1.4739,16.01645 2.6429,24.47223 4.919,19.74025 14.8939,38.66358 29.7381,52.268 2.5772,2.3621 5.5249,4.2432 8.2873,6.3647 2.6232,1.5657 5.048,3.5686 7.8694,4.6972 12.2778,4.9108 24.8554,1.5167 36.7821,-2.6512 14.5177,-5.0736 21.2607,-8.983 35.2,-15.90511 27.6985,-16.17898 56.2307,-31.85106 79.056,-55.27177 19.4733,-19.98141 34.7659,-43.33312 50.1016,-66.73315 23.3146,-37.60799 44.131,-77.05617 60.2966,-118.60768 2.3914,-6.14671 4.482,-12.41642 6.723,-18.62462 5.7471,-19.18116 10.8364,-38.95779 11.6382,-59.16101 0.3717,-9.36654 -0.2466,-12.26981 -1.205,-21.27006 -2.6379,-12.51568 -8.5351,-24.73276 -19.5682,-31.28383 -1.6421,-0.97507 -3.4359,-1.64069 -5.1539,-2.46104 -4.6774,-1.36181 -9.9699,-2.12841 -14.5019,0.44215 -25.5035,14.46581 -29.7794,13.97596 -43.1641,31.37677 -13.0604,22.85484 -22.6517,47.91419 -29.6855,73.46652 -1.7235,6.26128 -3.1235,12.6148 -4.6854,18.92222 -6.2395,26.30502 -8.0405,53.49017 -6.4403,80.49907 0.9919,16.74216 2.1624,22.166 4.6015,38.5065 5.3653,23.09585 11.9508,46.45799 23.4967,67.14392 6.8475,12.26826 10.3162,15.65762 19.0198,26.5177 17.5908,18.67809 39.3033,32.28984 63.153,40.16002 2.6993,0.3062 5.3828,0.9327 8.0979,0.9185 15.4443,-0.081 31.617,-9.1818 45.188,-16.01611 2.8917,-1.62582 5.8263,-3.17113 8.6752,-4.87745 11.926,-7.14316 23.8214,-14.34349 35.6458,-21.66868 8.8219,-5.46519 16.9698,-12.18073 25.3971,-18.27232 6.0429,-5.13632 12.9364,-9.04639 18.8971,-14.27622 0,0 -31.4038,13.13536 -31.4038,13.13536 v 0 c -6.0786,4.6883 -12.3692,9.06976 -18.3883,13.84395 -6.0202,4.42228 -11.9559,8.99862 -18.0955,13.23982 -2.3183,1.60137 -9.4901,6.03569 -7.0346,4.67562 3.9905,-2.21031 35.3577,-20.9495 11.7622,-7.02752 -12.4848,6.47763 -29.7679,16.08045 -43.7981,17.18569 -2.5765,0.20296 -5.1644,-0.19351 -7.7466,-0.29026 -23.9253,-6.66431 -45.8705,-19.107 -63.3071,-37.69682 -8.7394,-10.87605 -11.7045,-13.65319 -18.6343,-25.89403 -11.5055,-20.32295 -18.441,-43.13336 -23.3963,-66.02637 -2.524,-16.16989 -3.724,-21.38172 -4.6993,-37.97829 -1.5784,-26.86328 0.7904,-53.63672 6.9996,-79.76485 1.586,-6.25001 2.9859,-12.55478 4.7579,-18.75003 7.3352,-25.64355 17.4202,-50.97871 31.9831,-73.07922 1.8725,-2.10595 3.6194,-4.34191 5.6177,-6.31784 1.5145,-1.49764 6.7609,-5.04192 4.8921,-4.07446 -64.5216,33.40228 -21.3661,11.29187 -15.676,10.9378 1.5481,-0.0964 3.0883,0.29927 4.6324,0.4489 1.6259,0.64226 3.3127,1.13633 4.8775,1.9268 10.6781,5.39418 16.2592,16.66251 18.6807,28.29094 1.0279,8.63295 1.6655,11.3949 1.3685,20.40287 -0.6498,19.7052 -5.4414,39.05465 -10.8873,57.80892 -2.0996,6.08247 -4.0439,12.22582 -6.2986,18.2474 -15.4986,41.39065 -36.2288,80.41301 -59.5004,117.54654 -15.9444,23.98353 -30.6962,46.06523 -51.1489,66.31757 -5.706,5.65008 -13.221,9.37934 -18.0513,15.85896 -1.7969,2.41043 10.6252,-4.74956 8.3442,-2.83728 -5.1917,4.35232 -11.5529,6.91316 -17.3293,10.36974 -14.546,7.38056 -19.2526,10.32747 -34.2693,15.84393 -10.7098,3.9343 -22.953,7.92654 -34.3327,4.04281 -2.7939,-0.95354 -5.22,-2.82367 -7.83,-4.2355 -2.6941,-1.93762 -5.5654,-3.63103 -8.0826,-5.81288 -14.7512,-12.78617 -24.3014,-31.10567 -28.8937,-50.27121 -1.2446,-9.59654 -2.1517,-14.32211 -2.2469,-24.00703 -0.1585,-16.13083 2.6579,-32.20352 5.1933,-48.0369 3.8946,-18.30886 8.0946,-41.56107 19.7304,-56.44936 1.3714,-1.7546 3.0751,-3.19458 4.6124,-4.79187 12.0855,-9.31486 7.8064,-5.69835 -19.0855,10.40663 -1.2901,0.77253 2.5463,-1.64389 3.9405,-2.18362 3.8317,-1.48323 7.5919,-0.54477 11.2091,1.0359 1.0046,0.71621 2.1103,1.2981 3.0137,2.14863 7.8008,7.34416 4.4898,19.78553 2.2845,28.85088 -2.7937,8.83048 -3.2555,11.24133 -7.3223,19.89119 -8.8483,18.81991 -21.4468,35.36755 -35.2317,50.48443 -4.2541,4.20863 -8.3724,8.57196 -12.762,12.6259 -19.9839,18.45625 -42.2019,34.06651 -63.6102,50.60247 0,0 31.296,-12.99767 31.2961,-12.99767 z" />
    </g>
  </g>
</svg>
